HIERARCHY
ROOT Hips
{
   OFFSET 0.00000 0.00000 0.00000
   CHANNELS 6 Xposition Yposition Zposition Zrotation Xrotation Yrotation
   JOINT RightUpLeg
   {
      OFFSET -7.156640 -6.933656 0.081322
      CHANNELS 3 Zrotation Xrotation Yrotation
      JOINT RightLeg
      {
         OFFSET 0.000000 -35.538158 1.098160
         CHANNELS 3 Zrotation Xrotation Yrotation
         JOINT RightFoot
         {
            OFFSET 0.202839 -33.673920 -1.168472
            CHANNELS 3 Zrotation Xrotation Yrotation
            JOINT RightToes
            {
               OFFSET 0.032000 -3.532072 6.799280
               CHANNELS 3 Zrotation Xrotation Yrotation
               End Site
               {
                  OFFSET -0.064000 -0.109958 7.823832
               }
            }
         }
      }
   }
   JOINT Spine
   {
      OFFSET 0.000000 9.512400 0.000000
      CHANNELS 3 Zrotation Xrotation Yrotation
      JOINT Spine1
      {
         OFFSET 0.000000 20.525920 0.102130
         CHANNELS 3 Zrotation Xrotation Yrotation
         JOINT HEad
         {
            OFFSET 0.000000 6.987328 0.009073
            CHANNELS 3 Zrotation Xrotation Yrotation
            End Site
            {
               OFFSET -0.232000 10.219360 2.011160
            }
         }
         JOINT LeftShoulder1
         {
            OFFSET 7.192000 -0.289802 -0.176000
            CHANNELS 3 Zrotation Xrotation Yrotation
            JOINT LeftArm
            {
               OFFSET 8.226160 -0.002704 0.257698
               CHANNELS 3 Zrotation Xrotation Yrotation
               JOINT LeftForeArm
               {
                  OFFSET 26.213519 0.079315 -1.139472
                  CHANNELS 3 Zrotation Xrotation Yrotation
                  JOINT LeftHand
                  {
                     OFFSET 22.051441 0.068290 0.817728
                     CHANNELS 3 Zrotation Xrotation Yrotation
                     End Site
                     {
                        OFFSET 13.395442 -0.480000 1.202328
                     }
                  }
               }
            }
         }
         JOINT RightShoulder
         {
            OFFSET -7.192000 -0.289802 -0.176000
            CHANNELS 3 Zrotation Xrotation Yrotation
            JOINT RightArm
            {
               OFFSET -8.226160 -0.002704 0.257698
               CHANNELS 3 Zrotation Xrotation Yrotation
               JOINT RightForeArm
               {
                  OFFSET -26.317679 0.079315 -1.139472
                  CHANNELS 3 Zrotation Xrotation Yrotation
                  JOINT RightHand
                  {
                     OFFSET -21.993682 0.068290 0.817728
                     CHANNELS 3 Zrotation Xrotation Yrotation
                     End Site
                     {
                        OFFSET -13.304962 -0.480000 1.202328
                     }
                  }
               }
            }
         }
      }
   }
   JOINT LeftUpLeg
   {
      OFFSET 7.156640 -6.933656 0.081322
      CHANNELS 3 Zrotation Xrotation Yrotation
      JOINT LeftLeg
      {
         OFFSET 0.000000 -35.538158 1.098160
         CHANNELS 3 Zrotation Xrotation Yrotation
         JOINT LeftFoot
         {
            OFFSET -0.202839 -33.673920 -1.168472
            CHANNELS 3 Zrotation Xrotation Yrotation
            JOINT LeftToes
            {
               OFFSET -0.032000 -3.532072 6.799280
               CHANNELS 3 Zrotation Xrotation Yrotation
               End Site
               {
                  OFFSET 0.064000 -0.037958 7.823832
               }
            }
         }
      }
   }
}
MOTION
Frames: 9
Frame Time: 0.016667
-183.349988 91.855887 -504.864609 -0.667605 -22.783911 -15.342382 -6.474633 -14.803050 -134.044074 -13.134660 -27.336857 121.756455 -61.755381 -22.307258 61.087334 6.590108 2.406459 4.855000 -0.219895 20.672998 60.893226 12.497751 14.674568 -37.830919 21.002586 12.846245 1.554652 19.394008 54.093117 -4.206337 65.674256 -91.744173 33.036809 -30.682142 -42.494995 -78.985216 -91.646898 -40.347392 -90.941230 19.487179 182.717300 -2.648762 71.934555 5.522398 295.215147 7.035751 61.182519 42.373852 -2.483124 6.715430 36.903113 24.308872 -21.967386 -57.230551 -41.472140 -15.854438 79.620465 -41.015146 -0.039091 80.754624 4.645753 5.571183 -23.180747
-182.473275 91.801747 -507.774689 0.535592 -24.758879 -14.447800 -7.664991 -14.590068 -137.252528 -12.299706 -26.823556 120.001520 -63.756271 -18.948668 60.888917 5.882382 3.300075 5.809600 -0.647195 23.584332 61.653645 13.195727 14.915755 -41.175864 17.742475 12.087770 5.834925 19.762744 54.676200 -4.652715 64.783053 -91.948990 32.967277 -26.610175 -43.364471 -78.100338 -95.147650 -41.375503 -92.365789 17.520407 188.916380 -4.243735 69.593009 5.570664 301.424362 6.676868 60.720682 43.918017 -4.573837 12.303003 23.579655 22.417133 -19.963180 -61.272363 -43.520671 -9.954221 72.999641 -48.320443 2.500078 77.517934 4.310896 1.840312 -25.862580
-181.608846 91.934889 -510.915062 1.534165 -25.111474 -15.333163 -11.415622 -15.591971 -141.543363 -13.323558 -26.070234 117.684323 -52.365339 -13.360385 60.569523 5.452587 6.817090 6.720023 -1.920719 24.765431 62.936177 13.784626 14.616873 -44.811710 14.454489 9.708950 11.060728 21.343911 55.828392 -4.916475 61.927857 -92.879822 32.190343 -22.878352 -43.827582 -76.107118 -91.671589 -38.327487 -93.970323 13.983573 195.755612 -5.696833 66.759608 4.851821 306.566101 7.605709 61.142583 46.099569 -1.787261 6.244203 39.349898 22.167276 -19.517264 -66.028422 -45.292928 -10.010842 72.866166 -55.480247 4.780219 74.894342 3.970549 0.847882 -26.746234
-180.814359 92.072924 -513.930160 2.228634 -23.402376 -15.973463 -13.914542 -19.214244 -144.970902 -14.549177 -26.140613 116.425451 -40.516238 -7.427898 60.529348 4.848433 9.364465 7.458931 -3.384877 24.065955 62.874842 14.279520 13.839339 -51.340418 12.063384 6.320482 15.107390 23.695133 57.167662 -3.841722 58.203191 -94.029268 33.186390 -19.204723 -43.744852 -73.760012 -93.119473 -39.262724 -93.832968 12.424655 202.566690 -15.754605 64.842626 11.583162 315.306503 10.374125 58.610441 47.291017 -3.376742 9.251735 31.355964 19.929954 -17.937598 -70.750842 -41.988424 -12.014317 70.159669 -48.735565 7.571997 72.557974 3.738090 3.110079 -26.013274
-180.025136 92.141341 -516.858665 2.083058 -20.552724 -16.477775 -12.780311 -23.913051 -146.747857 -14.057193 -25.529806 115.651618 -46.553487 -4.278691 61.141087 4.085274 8.733450 8.737257 -3.538850 24.781866 65.684181 13.843223 11.676387 -56.865607 10.455286 0.610931 18.483709 27.538290 58.600687 -4.273473 56.005420 -94.693244 33.768687 -16.400756 -43.775079 -72.402457 -89.737819 -37.997141 -95.032165 8.483229 208.663249 -16.940664 63.671379 9.973318 320.093455 7.219814 58.584110 47.232712 -3.213008 2.968782 42.740260 18.687275 -19.834734 -79.321289 -40.580739 -15.923053 72.545304 -42.247889 11.277047 69.197104 3.422486 5.928895 -25.521031
-179.275548 92.185973 -519.594223 0.103287 -17.174673 -17.916059 -11.303531 -28.497212 -147.436067 -14.669353 -24.236967 112.044028 -42.585434 -2.938794 62.226869 3.252384 5.781995 9.627273 -1.086226 25.617408 70.916078 13.470875 10.045465 -61.392144 10.869634 -5.726894 20.485585 29.355067 60.714583 -6.267853 55.165782 -94.315459 34.396611 -13.451521 -44.223972 -73.071843 -89.052758 -38.210131 -97.003542 4.542568 214.212300 -19.391488 62.505773 10.167444 324.543897 6.657227 58.451270 48.520441 -5.055070 3.195872 38.363687 18.427330 -24.171461 -90.736379 -39.687910 -21.264346 80.644822 -34.793899 15.325478 65.286507 3.055957 9.502075 -25.108154
-178.443963 92.112063 -522.116348 -1.483248 -14.890888 -20.236111 -9.577291 -30.216603 -149.474428 -14.250716 -22.931149 106.719288 -47.046848 -2.837118 63.219302 2.718716 3.437239 9.951960 2.029988 24.536847 74.134231 12.323554 7.292781 -66.945102 15.156801 -11.898649 21.487152 29.473192 63.293027 -9.303141 52.541961 -93.643389 34.812511 -10.635065 -44.950103 -70.873267 -86.270268 -36.264633 -98.819990 -1.960439 218.928518 -23.622651 61.300067 8.976209 328.503139 6.572132 59.022731 49.204614 -4.448755 1.018262 43.063264 16.730615 -26.420775 -102.880421 -36.570103 -25.571721 87.773552 -26.756218 18.893208 61.761104 2.700008 14.183100 -24.268328
-177.514951 91.964644 -524.329445 -3.438918 -12.352482 -20.625880 -9.361528 -32.222244 -152.663102 -14.747434 -22.376683 101.010097 -43.997381 -2.655775 64.049983 2.409393 0.720134 9.870999 5.222580 24.654048 75.931978 10.847002 5.194712 -72.896833 17.861061 -16.426998 22.397281 31.013799 64.017833 -12.646428 55.863222 -90.739111 38.026672 -6.110686 -44.492464 -67.140193 -85.109635 -36.595593 -99.725707 -7.695938 223.747749 -27.579307 60.453362 7.766354 332.372004 6.442900 59.317393 49.263091 -5.348256 1.975251 39.582988 15.776827 -26.730014 -114.365575 -29.812956 -29.336106 92.242422 -17.526694 21.690787 59.049485 2.442672 19.572932 -23.275297
-176.517064 91.807040 -526.381790 -4.737237 -11.181885 -20.291194 -10.190003 -33.363084 -157.246760 -15.305416 -22.259134 97.148110 -47.281961 -2.146052 64.219221 2.502387 -0.063118 9.231876 7.370478 24.778927 78.052321 9.762021 4.256403 -77.755714 19.415757 -20.177195 23.320940 32.343910 65.300727 -15.114247 58.221953 -88.989818 39.442399 -2.333275 -44.881897 -63.608575 -82.710545 -36.470697 -99.976436 -12.313177 228.291642 -30.920615 60.028477 6.776264 336.456075 6.700368 59.129754 49.399408 -5.168332 1.090844 42.424600 14.864261 -25.916769 -125.129093 -23.414766 -31.973461 94.297728 -7.685681 24.039418 56.235413 2.262392 23.746271 -22.743721
